<svg width="240" height="240" viewBox="0 0 240 240" xmlns="http://www.w3.org/2000/svg">
  <defs>
    <!-- AXIS Terminal Cyan Gradient -->
    <linearGradient id="cyanGradient" x1="0%" y1="0%" x2="100%" y2="100%">
      <stop offset="0%" style="stop-color:#00D9FF;stop-opacity:1" />
      <stop offset="50%" style="stop-color:#06B6D4;stop-opacity:1" />
      <stop offset="100%" style="stop-color:#3F72AF;stop-opacity:1" />
    </linearGradient>
    
    <!-- Electric Accent Gradient -->
    <linearGradient id="electricGradient" x1="0%" y1="0%" x2="100%" y2="0%">
      <stop offset="0%" style="stop-color:#E6F8FF;stop-opacity:1" />
      <stop offset="100%" style="stop-color:#06B6D4;stop-opacity:1" />
    </linearGradient>
    
    <!-- Glow filter -->
    <filter id="glow">
      <feGaussianBlur stdDeviation="4" result="coloredBlur"/>
      <feMerge>
        <feMergeNode in="coloredBlur"/>
        <feMergeNode in="SourceGraphic"/>
      </feMerge>
    </filter>
    
    <!-- Drop shadow -->
    <filter id="shadow" x="-50%" y="-50%" width="200%" height="200%">
      <feDropShadow dx="0" dy="0" stdDeviation="8" flood-color="#06B6D4" flood-opacity="0.4"/>
    </filter>
  </defs>
  
  <!-- Background circle with glow -->
  <circle cx="120" cy="120" r="100" fill="#0A0F1C" filter="url(#shadow)"/>
  
  <!-- Main logo group centered -->
  <g transform="translate(120,120)">
    
    <!-- Outer ring with glow -->
    <circle cx="0" cy="0" r="90" fill="none" stroke="url(#cyanGradient)" stroke-width="2" opacity="0.9" filter="url(#glow)"/>
    
    <!-- Core axis cross with glow -->
    <g filter="url(#glow)">
      <!-- Vertical axis -->
      <rect x="-4" y="-70" width="8" height="140" fill="url(#cyanGradient)"/>
      
      <!-- Horizontal axis -->
      <rect x="-70" y="-4" width="140" height="8" fill="url(#cyanGradient)"/>
    </g>
    
    <!-- Diagonal thorns -->
    <g transform="rotate(45)" opacity="0.8">
      <path d="M -50,-3 L 50,-3 L 45,0 L 50,3 L -50,3 L -45,0 Z" fill="url(#electricGradient)"/>
    </g>
    
    <g transform="rotate(-45)" opacity="0.8">
      <path d="M -50,-3 L 50,-3 L 45,0 L 50,3 L -50,3 L -45,0 Z" fill="url(#electricGradient)"/>
    </g>
    
    <!-- Central hexagon with glow -->
    <polygon points="0,-30 26,-15 26,15 0,30 -26,15 -26,-15" 
             fill="none" 
             stroke="url(#cyanGradient)" 
             stroke-width="3"
             filter="url(#glow)"/>
    
    <!-- Inner diamond -->
    <polygon points="0,-20 14,0 0,20 -14,0" 
             fill="url(#cyanGradient)" 
             opacity="0.9"/>
    
    <!-- Corner accent dots with glow -->
    <g filter="url(#glow)">
      <circle cx="-70" cy="-70" r="5" fill="#E6F8FF"/>
      <circle cx="70" cy="-70" r="5" fill="#E6F8FF"/>
      <circle cx="70" cy="70" r="5" fill="#E6F8FF"/>
      <circle cx="-70" cy="70" r="5" fill="#E6F8FF"/>
    </g>
  </g>
</svg>